<svg xmlns="http://www.w3.org/2000/svg" viewBox="0 0 700 680" width="100%" height="100%">
  <rect width="100%" height="100%" fill="#0a0c16" rx="12"/>
  <g stroke="rgba(255,255,255,0.015)" stroke-width="1">
    <line x1="50" y1="0" x2="50" y2="680"/>
    <line x1="100" y1="0" x2="100" y2="680"/>
    <line x1="150" y1="0" x2="150" y2="680"/>
    <line x1="200" y1="0" x2="200" y2="680"/>
    <line x1="250" y1="0" x2="250" y2="680"/>
    <line x1="300" y1="0" x2="300" y2="680"/>
    <line x1="350" y1="0" x2="350" y2="680"/>
    <line x1="400" y1="0" x2="400" y2="680"/>
    <line x1="450" y1="0" x2="450" y2="680"/>
    <line x1="500" y1="0" x2="500" y2="680"/>
    <line x1="550" y1="0" x2="550" y2="680"/>
    <line x1="600" y1="0" x2="600" y2="680"/>
    <line x1="650" y1="0" x2="650" y2="680"/>
    <line x1="0" y1="50" x2="700" y2="50"/>
    <line x1="0" y1="100" x2="700" y2="100"/>
    <line x1="0" y1="150" x2="700" y2="150"/>
    <line x1="0" y1="200" x2="700" y2="200"/>
    <line x1="0" y1="250" x2="700" y2="250"/>
    <line x1="0" y1="300" x2="700" y2="300"/>
    <line x1="0" y1="350" x2="700" y2="350"/>
    <line x1="0" y1="400" x2="700" y2="400"/>
    <line x1="0" y1="450" x2="700" y2="450"/>
    <line x1="0" y1="500" x2="700" y2="500"/>
    <line x1="0" y1="550" x2="700" y2="550"/>
    <line x1="0" y1="600" x2="700" y2="600"/>
    <line x1="0" y1="650" x2="700" y2="650"/>
  </g>
  <!-- Head & Torso -->
  <ellipse cx="350" cy="250" rx="80" ry="110" fill="#141829" stroke="#2c324f" stroke-width="2"/>
  <ellipse cx="310" cy="225" rx="14" ry="12" fill="#0c0e18" stroke="#3b82f6" stroke-width="1.5"/>
  <circle cx="310" cy="225" r="4" fill="#60a5fa"/>
  <ellipse cx="390" cy="225" rx="14" ry="12" fill="#0c0e18" stroke="#3b82f6" stroke-width="1.5"/>
  <circle cx="390" cy="225" r="4" fill="#60a5fa"/>
  <path d="M 290 198 Q 310 190 330 200" fill="none" stroke="#22d3ee" stroke-width="3" stroke-linecap="round"/>
  <path d="M 370 200 Q 390 190 410 198" fill="none" stroke="#22d3ee" stroke-width="3" stroke-linecap="round"/>
  <ellipse cx="267" cy="240" rx="10" ry="18" fill="#141829" stroke="#2c324f" stroke-width="2"/>
  <ellipse cx="433" cy="240" rx="10" ry="18" fill="#141829" stroke="#2c324f" stroke-width="2"/>
  <path d="M 350 240 L 342 260 Q 350 265 358 260 Z" fill="#1b2035" stroke="#2c324f" stroke-width="1.5"/>
  <path d="M 320 355 L 310 430 L 390 430 L 380 355 Z" fill="#141829" stroke="#2c324f" stroke-width="2"/>
  <path d="M 170 590 Q 230 470 310 430 L 390 430 Q 470 470 530 590 Z" fill="#1e243b" stroke="#374151" stroke-width="2"/>
  <path d="M 310 430 L 350 490 L 390 430 Z" fill="#10b981" opacity="0.1"/>
  <!-- Mouth Loop Outline -->
  <path d="M 384.0 310.0 L 379.4448637286709 316.53589838486226 L 367.0 322.39230484541326 L 350.0 326.0 L 333.0 322.39230484541326 L 320.5551362713291 316.53589838486226 L 316.0 310.0 L 320.5551362713291 303.7320508075689 L 333.0 298.60769515458674 L 350.0 296.0 L 367.0 298.60769515458674 L 379.4448637286709 303.7320508075689 Z" fill="#111827" stroke="#3b82f6" stroke-width="2" stroke-linejoin="round"/>
  <line x1="350" y1="140" x2="105" y2="40.0" stroke="rgba(139, 92, 246, 0.35)" stroke-width="1.2" stroke-dasharray="3,3"/>
  <rect x="15" y="30.0" width="90" height="20" rx="4" fill="#0d1127" stroke="#8b5cf6" stroke-width="1.2" opacity="0.9"/>
  <text x="60" y="44.0" fill="#c084fc" font-size="8.5" font-family="Outfit, sans-serif" font-weight="600" text-anchor="middle">forehead_top</text>
  <circle cx="350" cy="140" r="4" fill="#8b5cf6" stroke="#ffffff" stroke-width="1.2" style="filter: drop-shadow(0 0 3px #8b5cf6);"/>
  <line x1="285" y1="160" x2="105" y2="82.85714285714286" stroke="rgba(139, 92, 246, 0.35)" stroke-width="1.2" stroke-dasharray="3,3"/>
  <rect x="15" y="72.85714285714286" width="90" height="20" rx="4" fill="#0d1127" stroke="#8b5cf6" stroke-width="1.2" opacity="0.9"/>
  <text x="60" y="86.85714285714286" fill="#c084fc" font-size="8.5" font-family="Outfit, sans-serif" font-weight="600" text-anchor="middle">temple_left</text>
  <circle cx="285" cy="160" r="4" fill="#8b5cf6" stroke="#ffffff" stroke-width="1.2" style="filter: drop-shadow(0 0 3px #8b5cf6);"/>
  <line x1="415" y1="160" x2="595" y2="40.0" stroke="rgba(139, 92, 246, 0.35)" stroke-width="1.2" stroke-dasharray="3,3"/>
  <rect x="595" y="30.0" width="90" height="20" rx="4" fill="#0d1127" stroke="#8b5cf6" stroke-width="1.2" opacity="0.9"/>
  <text x="640" y="44.0" fill="#c084fc" font-size="8.5" font-family="Outfit, sans-serif" font-weight="600" text-anchor="middle">temple_right</text>
  <circle cx="415" cy="160" r="4" fill="#8b5cf6" stroke="#ffffff" stroke-width="1.2" style="filter: drop-shadow(0 0 3px #8b5cf6);"/>
  <line x1="315" y1="200" x2="105" y2="125.71428571428571" stroke="rgba(16, 185, 129, 0.35)" stroke-width="1.2" stroke-dasharray="3,3"/>
  <rect x="15" y="115.71428571428571" width="90" height="20" rx="4" fill="#0d1127" stroke="#10b981" stroke-width="1.2" opacity="0.9"/>
  <text x="60" y="129.71428571428572" fill="#34d399" font-size="8.5" font-family="Outfit, sans-serif" font-weight="600" text-anchor="middle">eyebrow_left</text>
  <circle cx="315" cy="200" r="4" fill="#10b981" stroke="#ffffff" stroke-width="1.2" style="filter: drop-shadow(0 0 3px #10b981);"/>
  <line x1="385" y1="200" x2="595" y2="80.0" stroke="rgba(16, 185, 129, 0.35)" stroke-width="1.2" stroke-dasharray="3,3"/>
  <rect x="595" y="70.0" width="90" height="20" rx="4" fill="#0d1127" stroke="#10b981" stroke-width="1.2" opacity="0.9"/>
  <text x="640" y="84.0" fill="#34d399" font-size="8.5" font-family="Outfit, sans-serif" font-weight="600" text-anchor="middle">eyebrow_right</text>
  <circle cx="385" cy="200" r="4" fill="#10b981" stroke="#ffffff" stroke-width="1.2" style="filter: drop-shadow(0 0 3px #10b981);"/>
  <line x1="310" y1="225" x2="105" y2="168.57142857142856" stroke="rgba(16, 185, 129, 0.35)" stroke-width="1.2" stroke-dasharray="3,3"/>
  <rect x="15" y="158.57142857142856" width="90" height="20" rx="4" fill="#0d1127" stroke="#10b981" stroke-width="1.2" opacity="0.9"/>
  <text x="60" y="172.57142857142856" fill="#34d399" font-size="8.5" font-family="Outfit, sans-serif" font-weight="600" text-anchor="middle">eye_left</text>
  <circle cx="310" cy="225" r="4" fill="#10b981" stroke="#ffffff" stroke-width="1.2" style="filter: drop-shadow(0 0 3px #10b981);"/>
  <line x1="390" y1="225" x2="595" y2="120.0" stroke="rgba(16, 185, 129, 0.35)" stroke-width="1.2" stroke-dasharray="3,3"/>
  <rect x="595" y="110.0" width="90" height="20" rx="4" fill="#0d1127" stroke="#10b981" stroke-width="1.2" opacity="0.9"/>
  <text x="640" y="124.0" fill="#34d399" font-size="8.5" font-family="Outfit, sans-serif" font-weight="600" text-anchor="middle">eye_right</text>
  <circle cx="390" cy="225" r="4" fill="#10b981" stroke="#ffffff" stroke-width="1.2" style="filter: drop-shadow(0 0 3px #10b981);"/>
  <line x1="255" y1="240" x2="105" y2="211.42857142857142" stroke="rgba(139, 92, 246, 0.35)" stroke-width="1.2" stroke-dasharray="3,3"/>
  <rect x="15" y="201.42857142857142" width="90" height="20" rx="4" fill="#0d1127" stroke="#8b5cf6" stroke-width="1.2" opacity="0.9"/>
  <text x="60" y="215.42857142857142" fill="#c084fc" font-size="8.5" font-family="Outfit, sans-serif" font-weight="600" text-anchor="middle">ear_left</text>
  <circle cx="255" cy="240" r="4" fill="#8b5cf6" stroke="#ffffff" stroke-width="1.2" style="filter: drop-shadow(0 0 3px #8b5cf6);"/>
  <line x1="445" y1="240" x2="595" y2="160.0" stroke="rgba(139, 92, 246, 0.35)" stroke-width="1.2" stroke-dasharray="3,3"/>
  <rect x="595" y="150.0" width="90" height="20" rx="4" fill="#0d1127" stroke="#8b5cf6" stroke-width="1.2" opacity="0.9"/>
  <text x="640" y="164.0" fill="#c084fc" font-size="8.5" font-family="Outfit, sans-serif" font-weight="600" text-anchor="middle">ear_right</text>
  <circle cx="445" cy="240" r="4" fill="#8b5cf6" stroke="#ffffff" stroke-width="1.2" style="filter: drop-shadow(0 0 3px #8b5cf6);"/>
  <line x1="350" y1="255" x2="595" y2="200.0" stroke="rgba(16, 185, 129, 0.35)" stroke-width="1.2" stroke-dasharray="3,3"/>
  <rect x="595" y="190.0" width="90" height="20" rx="4" fill="#0d1127" stroke="#10b981" stroke-width="1.2" opacity="0.9"/>
  <text x="640" y="204.0" fill="#34d399" font-size="8.5" font-family="Outfit, sans-serif" font-weight="600" text-anchor="middle">nose_tip</text>
  <circle cx="350" cy="255" r="4" fill="#10b981" stroke="#ffffff" stroke-width="1.2" style="filter: drop-shadow(0 0 3px #10b981);"/>
  <line x1="295" y1="280" x2="105" y2="254.28571428571428" stroke="rgba(16, 185, 129, 0.35)" stroke-width="1.2" stroke-dasharray="3,3"/>
  <rect x="15" y="244.28571428571428" width="90" height="20" rx="4" fill="#0d1127" stroke="#10b981" stroke-width="1.2" opacity="0.9"/>
  <text x="60" y="258.2857142857143" fill="#34d399" font-size="8.5" font-family="Outfit, sans-serif" font-weight="600" text-anchor="middle">cheek_left</text>
  <circle cx="295" cy="280" r="4" fill="#10b981" stroke="#ffffff" stroke-width="1.2" style="filter: drop-shadow(0 0 3px #10b981);"/>
  <line x1="405" y1="280" x2="595" y2="240.0" stroke="rgba(16, 185, 129, 0.35)" stroke-width="1.2" stroke-dasharray="3,3"/>
  <rect x="595" y="230.0" width="90" height="20" rx="4" fill="#0d1127" stroke="#10b981" stroke-width="1.2" opacity="0.9"/>
  <text x="640" y="244.0" fill="#34d399" font-size="8.5" font-family="Outfit, sans-serif" font-weight="600" text-anchor="middle">cheek_right</text>
  <circle cx="405" cy="280" r="4" fill="#10b981" stroke="#ffffff" stroke-width="1.2" style="filter: drop-shadow(0 0 3px #10b981);"/>
  <line x1="290" y1="340" x2="105" y2="511.4285714285714" stroke="rgba(16, 185, 129, 0.35)" stroke-width="1.2" stroke-dasharray="3,3"/>
  <rect x="15" y="501.4285714285714" width="90" height="20" rx="4" fill="#0d1127" stroke="#10b981" stroke-width="1.2" opacity="0.9"/>
  <text x="60" y="515.4285714285713" fill="#34d399" font-size="8.5" font-family="Outfit, sans-serif" font-weight="600" text-anchor="middle">jaw_left</text>
  <circle cx="290" cy="340" r="4" fill="#10b981" stroke="#ffffff" stroke-width="1.2" style="filter: drop-shadow(0 0 3px #10b981);"/>
  <line x1="350" y1="370" x2="595" y2="600.0" stroke="rgba(16, 185, 129, 0.35)" stroke-width="1.2" stroke-dasharray="3,3"/>
  <rect x="595" y="590.0" width="90" height="20" rx="4" fill="#0d1127" stroke="#10b981" stroke-width="1.2" opacity="0.9"/>
  <text x="640" y="604.0" fill="#34d399" font-size="8.5" font-family="Outfit, sans-serif" font-weight="600" text-anchor="middle">jaw_center</text>
  <circle cx="350" cy="370" r="4" fill="#10b981" stroke="#ffffff" stroke-width="1.2" style="filter: drop-shadow(0 0 3px #10b981);"/>
  <line x1="410" y1="340" x2="595" y2="560.0" stroke="rgba(16, 185, 129, 0.35)" stroke-width="1.2" stroke-dasharray="3,3"/>
  <rect x="595" y="550.0" width="90" height="20" rx="4" fill="#0d1127" stroke="#10b981" stroke-width="1.2" opacity="0.9"/>
  <text x="640" y="564.0" fill="#34d399" font-size="8.5" font-family="Outfit, sans-serif" font-weight="600" text-anchor="middle">jaw_right</text>
  <circle cx="410" cy="340" r="4" fill="#10b981" stroke="#ffffff" stroke-width="1.2" style="filter: drop-shadow(0 0 3px #10b981);"/>
  <line x1="350" y1="420" x2="105" y2="554.2857142857142" stroke="rgba(139, 92, 246, 0.35)" stroke-width="1.2" stroke-dasharray="3,3"/>
  <rect x="15" y="544.2857142857142" width="90" height="20" rx="4" fill="#0d1127" stroke="#8b5cf6" stroke-width="1.2" opacity="0.9"/>
  <text x="60" y="558.2857142857142" fill="#c084fc" font-size="8.5" font-family="Outfit, sans-serif" font-weight="600" text-anchor="middle">neck_base</text>
  <circle cx="350" cy="420" r="4" fill="#8b5cf6" stroke="#ffffff" stroke-width="1.2" style="filter: drop-shadow(0 0 3px #8b5cf6);"/>
  <line x1="200" y1="490" x2="105" y2="597.1428571428571" stroke="rgba(139, 92, 246, 0.35)" stroke-width="1.2" stroke-dasharray="3,3"/>
  <rect x="15" y="587.1428571428571" width="90" height="20" rx="4" fill="#0d1127" stroke="#8b5cf6" stroke-width="1.2" opacity="0.9"/>
  <text x="60" y="601.1428571428571" fill="#c084fc" font-size="8.5" font-family="Outfit, sans-serif" font-weight="600" text-anchor="middle">shoulder_left</text>
  <circle cx="200" cy="490" r="4" fill="#8b5cf6" stroke="#ffffff" stroke-width="1.2" style="filter: drop-shadow(0 0 3px #8b5cf6);"/>
  <line x1="500" y1="490" x2="595" y2="640.0" stroke="rgba(139, 92, 246, 0.35)" stroke-width="1.2" stroke-dasharray="3,3"/>
  <rect x="595" y="630.0" width="90" height="20" rx="4" fill="#0d1127" stroke="#8b5cf6" stroke-width="1.2" opacity="0.9"/>
  <text x="640" y="644.0" fill="#c084fc" font-size="8.5" font-family="Outfit, sans-serif" font-weight="600" text-anchor="middle">shoulder_right</text>
  <circle cx="500" cy="490" r="4" fill="#8b5cf6" stroke="#ffffff" stroke-width="1.2" style="filter: drop-shadow(0 0 3px #8b5cf6);"/>
  <line x1="350" y1="570" x2="105" y2="640.0" stroke="rgba(139, 92, 246, 0.35)" stroke-width="1.2" stroke-dasharray="3,3"/>
  <rect x="15" y="630.0" width="90" height="20" rx="4" fill="#0d1127" stroke="#8b5cf6" stroke-width="1.2" opacity="0.9"/>
  <text x="60" y="644.0" fill="#c084fc" font-size="8.5" font-family="Outfit, sans-serif" font-weight="600" text-anchor="middle">chest_center</text>
  <circle cx="350" cy="570" r="4" fill="#8b5cf6" stroke="#ffffff" stroke-width="1.2" style="filter: drop-shadow(0 0 3px #8b5cf6);"/>
  <line x1="384.0" y1="310.0" x2="595" y2="400.0" stroke="rgba(16, 185, 129, 0.35)" stroke-width="1.2" stroke-dasharray="3,3"/>
  <rect x="595" y="390.0" width="90" height="20" rx="4" fill="#0d1127" stroke="#10b981" stroke-width="1.2" opacity="0.9"/>
  <text x="640" y="404.0" fill="#34d399" font-size="8.5" font-family="Outfit, sans-serif" font-weight="600" text-anchor="middle">mouth_lip_0</text>
  <circle cx="384.0" cy="310.0" r="4" fill="#10b981" stroke="#ffffff" stroke-width="1.2" style="filter: drop-shadow(0 0 3px #10b981);"/>
  <line x1="379.4448637286709" y1="316.53589838486226" x2="595" y2="440.0" stroke="rgba(16, 185, 129, 0.35)" stroke-width="1.2" stroke-dasharray="3,3"/>
  <rect x="595" y="430.0" width="90" height="20" rx="4" fill="#0d1127" stroke="#10b981" stroke-width="1.2" opacity="0.9"/>
  <text x="640" y="444.0" fill="#34d399" font-size="8.5" font-family="Outfit, sans-serif" font-weight="600" text-anchor="middle">mouth_lip_1</text>
  <circle cx="379.4448637286709" cy="316.53589838486226" r="4" fill="#10b981" stroke="#ffffff" stroke-width="1.2" style="filter: drop-shadow(0 0 3px #10b981);"/>
  <line x1="367.0" y1="322.39230484541326" x2="595" y2="480.0" stroke="rgba(16, 185, 129, 0.35)" stroke-width="1.2" stroke-dasharray="3,3"/>
  <rect x="595" y="470.0" width="90" height="20" rx="4" fill="#0d1127" stroke="#10b981" stroke-width="1.2" opacity="0.9"/>
  <text x="640" y="484.0" fill="#34d399" font-size="8.5" font-family="Outfit, sans-serif" font-weight="600" text-anchor="middle">mouth_lip_2</text>
  <circle cx="367.0" cy="322.39230484541326" r="4" fill="#10b981" stroke="#ffffff" stroke-width="1.2" style="filter: drop-shadow(0 0 3px #10b981);"/>
  <line x1="350.0" y1="326.0" x2="595" y2="520.0" stroke="rgba(16, 185, 129, 0.35)" stroke-width="1.2" stroke-dasharray="3,3"/>
  <rect x="595" y="510.0" width="90" height="20" rx="4" fill="#0d1127" stroke="#10b981" stroke-width="1.2" opacity="0.9"/>
  <text x="640" y="524.0" fill="#34d399" font-size="8.5" font-family="Outfit, sans-serif" font-weight="600" text-anchor="middle">mouth_lip_3</text>
  <circle cx="350.0" cy="326.0" r="4" fill="#10b981" stroke="#ffffff" stroke-width="1.2" style="filter: drop-shadow(0 0 3px #10b981);"/>
  <line x1="333.0" y1="322.39230484541326" x2="105" y2="468.57142857142856" stroke="rgba(16, 185, 129, 0.35)" stroke-width="1.2" stroke-dasharray="3,3"/>
  <rect x="15" y="458.57142857142856" width="90" height="20" rx="4" fill="#0d1127" stroke="#10b981" stroke-width="1.2" opacity="0.9"/>
  <text x="60" y="472.57142857142856" fill="#34d399" font-size="8.5" font-family="Outfit, sans-serif" font-weight="600" text-anchor="middle">mouth_lip_4</text>
  <circle cx="333.0" cy="322.39230484541326" r="4" fill="#10b981" stroke="#ffffff" stroke-width="1.2" style="filter: drop-shadow(0 0 3px #10b981);"/>
  <line x1="320.5551362713291" y1="316.53589838486226" x2="105" y2="425.71428571428567" stroke="rgba(16, 185, 129, 0.35)" stroke-width="1.2" stroke-dasharray="3,3"/>
  <rect x="15" y="415.71428571428567" width="90" height="20" rx="4" fill="#0d1127" stroke="#10b981" stroke-width="1.2" opacity="0.9"/>
  <text x="60" y="429.71428571428567" fill="#34d399" font-size="8.5" font-family="Outfit, sans-serif" font-weight="600" text-anchor="middle">mouth_lip_5</text>
  <circle cx="320.5551362713291" cy="316.53589838486226" r="4" fill="#10b981" stroke="#ffffff" stroke-width="1.2" style="filter: drop-shadow(0 0 3px #10b981);"/>
  <line x1="316.0" y1="310.0" x2="105" y2="382.85714285714283" stroke="rgba(16, 185, 129, 0.35)" stroke-width="1.2" stroke-dasharray="3,3"/>
  <rect x="15" y="372.85714285714283" width="90" height="20" rx="4" fill="#0d1127" stroke="#10b981" stroke-width="1.2" opacity="0.9"/>
  <text x="60" y="386.85714285714283" fill="#34d399" font-size="8.5" font-family="Outfit, sans-serif" font-weight="600" text-anchor="middle">mouth_lip_6</text>
  <circle cx="316.0" cy="310.0" r="4" fill="#10b981" stroke="#ffffff" stroke-width="1.2" style="filter: drop-shadow(0 0 3px #10b981);"/>
  <line x1="320.5551362713291" y1="303.7320508075689" x2="105" y2="340.0" stroke="rgba(16, 185, 129, 0.35)" stroke-width="1.2" stroke-dasharray="3,3"/>
  <rect x="15" y="330.0" width="90" height="20" rx="4" fill="#0d1127" stroke="#10b981" stroke-width="1.2" opacity="0.9"/>
  <text x="60" y="344.0" fill="#34d399" font-size="8.5" font-family="Outfit, sans-serif" font-weight="600" text-anchor="middle">mouth_lip_7</text>
  <circle cx="320.5551362713291" cy="303.7320508075689" r="4" fill="#10b981" stroke="#ffffff" stroke-width="1.2" style="filter: drop-shadow(0 0 3px #10b981);"/>
  <line x1="333.0" y1="298.60769515458674" x2="105" y2="297.1428571428571" stroke="rgba(16, 185, 129, 0.35)" stroke-width="1.2" stroke-dasharray="3,3"/>
  <rect x="15" y="287.1428571428571" width="90" height="20" rx="4" fill="#0d1127" stroke="#10b981" stroke-width="1.2" opacity="0.9"/>
  <text x="60" y="301.1428571428571" fill="#34d399" font-size="8.5" font-family="Outfit, sans-serif" font-weight="600" text-anchor="middle">mouth_lip_8</text>
  <circle cx="333.0" cy="298.60769515458674" r="4" fill="#10b981" stroke="#ffffff" stroke-width="1.2" style="filter: drop-shadow(0 0 3px #10b981);"/>
  <line x1="350.0" y1="296.0" x2="595" y2="280.0" stroke="rgba(16, 185, 129, 0.35)" stroke-width="1.2" stroke-dasharray="3,3"/>
  <rect x="595" y="270.0" width="90" height="20" rx="4" fill="#0d1127" stroke="#10b981" stroke-width="1.2" opacity="0.9"/>
  <text x="640" y="284.0" fill="#34d399" font-size="8.5" font-family="Outfit, sans-serif" font-weight="600" text-anchor="middle">mouth_lip_9</text>
  <circle cx="350.0" cy="296.0" r="4" fill="#10b981" stroke="#ffffff" stroke-width="1.2" style="filter: drop-shadow(0 0 3px #10b981);"/>
  <line x1="367.0" y1="298.60769515458674" x2="595" y2="320.0" stroke="rgba(16, 185, 129, 0.35)" stroke-width="1.2" stroke-dasharray="3,3"/>
  <rect x="595" y="310.0" width="90" height="20" rx="4" fill="#0d1127" stroke="#10b981" stroke-width="1.2" opacity="0.9"/>
  <text x="640" y="324.0" fill="#34d399" font-size="8.5" font-family="Outfit, sans-serif" font-weight="600" text-anchor="middle">mouth_lip_10</text>
  <circle cx="367.0" cy="298.60769515458674" r="4" fill="#10b981" stroke="#ffffff" stroke-width="1.2" style="filter: drop-shadow(0 0 3px #10b981);"/>
  <line x1="379.4448637286709" y1="303.7320508075689" x2="595" y2="360.0" stroke="rgba(16, 185, 129, 0.35)" stroke-width="1.2" stroke-dasharray="3,3"/>
  <rect x="595" y="350.0" width="90" height="20" rx="4" fill="#0d1127" stroke="#10b981" stroke-width="1.2" opacity="0.9"/>
  <text x="640" y="364.0" fill="#34d399" font-size="8.5" font-family="Outfit, sans-serif" font-weight="600" text-anchor="middle">mouth_lip_11</text>
  <circle cx="379.4448637286709" cy="303.7320508075689" r="4" fill="#10b981" stroke="#ffffff" stroke-width="1.2" style="filter: drop-shadow(0 0 3px #10b981);"/>
</svg>