<svg xmlns="http://www.w3.org/2000/svg" viewBox="0 0 700 680" width="100%" height="100%">
  <rect width="100%" height="100%" fill="#0a0c16" rx="12"/>
  <g stroke="rgba(255,255,255,0.015)" stroke-width="1">
    <line x1="50" y1="0" x2="50" y2="680"/>
    <line x1="100" y1="0" x2="100" y2="680"/>
    <line x1="150" y1="0" x2="150" y2="680"/>
    <line x1="200" y1="0" x2="200" y2="680"/>
    <line x1="250" y1="0" x2="250" y2="680"/>
    <line x1="300" y1="0" x2="300" y2="680"/>
    <line x1="350" y1="0" x2="350" y2="680"/>
    <line x1="400" y1="0" x2="400" y2="680"/>
    <line x1="450" y1="0" x2="450" y2="680"/>
    <line x1="500" y1="0" x2="500" y2="680"/>
    <line x1="550" y1="0" x2="550" y2="680"/>
    <line x1="600" y1="0" x2="600" y2="680"/>
    <line x1="650" y1="0" x2="650" y2="680"/>
    <line x1="0" y1="50" x2="700" y2="50"/>
    <line x1="0" y1="100" x2="700" y2="100"/>
    <line x1="0" y1="150" x2="700" y2="150"/>
    <line x1="0" y1="200" x2="700" y2="200"/>
    <line x1="0" y1="250" x2="700" y2="250"/>
    <line x1="0" y1="300" x2="700" y2="300"/>
    <line x1="0" y1="350" x2="700" y2="350"/>
    <line x1="0" y1="400" x2="700" y2="400"/>
    <line x1="0" y1="450" x2="700" y2="450"/>
    <line x1="0" y1="500" x2="700" y2="500"/>
    <line x1="0" y1="550" x2="700" y2="550"/>
    <line x1="0" y1="600" x2="700" y2="600"/>
    <line x1="0" y1="650" x2="700" y2="650"/>
  </g>
  <!-- Head & Torso -->
  <ellipse cx="350" cy="250" rx="80" ry="110" fill="#141829" stroke="#2c324f" stroke-width="2"/>
  <ellipse cx="310" cy="225" rx="14" ry="12" fill="#0c0e18" stroke="#3b82f6" stroke-width="1.5"/>
  <circle cx="310" cy="225" r="4" fill="#60a5fa"/>
  <ellipse cx="390" cy="225" rx="14" ry="12" fill="#0c0e18" stroke="#3b82f6" stroke-width="1.5"/>
  <circle cx="390" cy="225" r="4" fill="#60a5fa"/>
  <path d="M 290 198 Q 310 190 330 200" fill="none" stroke="#22d3ee" stroke-width="3" stroke-linecap="round"/>
  <path d="M 370 200 Q 390 190 410 198" fill="none" stroke="#22d3ee" stroke-width="3" stroke-linecap="round"/>
  <ellipse cx="267" cy="240" rx="10" ry="18" fill="#141829" stroke="#2c324f" stroke-width="2"/>
  <ellipse cx="433" cy="240" rx="10" ry="18" fill="#141829" stroke="#2c324f" stroke-width="2"/>
  <path d="M 350 240 L 342 260 Q 350 265 358 260 Z" fill="#1b2035" stroke="#2c324f" stroke-width="1.5"/>
  <path d="M 320 355 L 310 430 L 390 430 L 380 355 Z" fill="#141829" stroke="#2c324f" stroke-width="2"/>
  <path d="M 170 590 Q 230 470 310 430 L 390 430 Q 470 470 530 590 Z" fill="#1e243b" stroke="#374151" stroke-width="2"/>
  <path d="M 310 430 L 350 490 L 390 430 Z" fill="#10b981" opacity="0.1"/>
  <!-- Mouth Loop Outline -->
  <path d="M 380.0 315.0 L 365.0 327.9903810567666 L 335.0 327.9903810567666 L 320.0 315.0 L 335.0 302.0096189432334 L 365.0 302.0096189432334 Z" fill="#111827" stroke="#3b82f6" stroke-width="2" stroke-linejoin="round"/>
  <line x1="350" y1="140" x2="105" y2="40.0" stroke="rgba(139, 92, 246, 0.35)" stroke-width="1.2" stroke-dasharray="3,3"/>
  <rect x="15" y="30.0" width="90" height="20" rx="4" fill="#0d1127" stroke="#8b5cf6" stroke-width="1.2" opacity="0.9"/>
  <text x="60" y="44.0" fill="#c084fc" font-size="8.5" font-family="Outfit, sans-serif" font-weight="600" text-anchor="middle">forehead_top</text>
  <circle cx="350" cy="140" r="4" fill="#8b5cf6" stroke="#ffffff" stroke-width="1.2" style="filter: drop-shadow(0 0 3px #8b5cf6);"/>
  <line x1="285" y1="160" x2="105" y2="90.0" stroke="rgba(139, 92, 246, 0.35)" stroke-width="1.2" stroke-dasharray="3,3"/>
  <rect x="15" y="80.0" width="90" height="20" rx="4" fill="#0d1127" stroke="#8b5cf6" stroke-width="1.2" opacity="0.9"/>
  <text x="60" y="94.0" fill="#c084fc" font-size="8.5" font-family="Outfit, sans-serif" font-weight="600" text-anchor="middle">temple_left</text>
  <circle cx="285" cy="160" r="4" fill="#8b5cf6" stroke="#ffffff" stroke-width="1.2" style="filter: drop-shadow(0 0 3px #8b5cf6);"/>
  <line x1="415" y1="160" x2="595" y2="40.0" stroke="rgba(139, 92, 246, 0.35)" stroke-width="1.2" stroke-dasharray="3,3"/>
  <rect x="595" y="30.0" width="90" height="20" rx="4" fill="#0d1127" stroke="#8b5cf6" stroke-width="1.2" opacity="0.9"/>
  <text x="640" y="44.0" fill="#c084fc" font-size="8.5" font-family="Outfit, sans-serif" font-weight="600" text-anchor="middle">temple_right</text>
  <circle cx="415" cy="160" r="4" fill="#8b5cf6" stroke="#ffffff" stroke-width="1.2" style="filter: drop-shadow(0 0 3px #8b5cf6);"/>
  <line x1="315" y1="200" x2="105" y2="140.0" stroke="rgba(16, 185, 129, 0.35)" stroke-width="1.2" stroke-dasharray="3,3"/>
  <rect x="15" y="130.0" width="90" height="20" rx="4" fill="#0d1127" stroke="#10b981" stroke-width="1.2" opacity="0.9"/>
  <text x="60" y="144.0" fill="#34d399" font-size="8.5" font-family="Outfit, sans-serif" font-weight="600" text-anchor="middle">eyebrow_left</text>
  <circle cx="315" cy="200" r="4" fill="#10b981" stroke="#ffffff" stroke-width="1.2" style="filter: drop-shadow(0 0 3px #10b981);"/>
  <line x1="385" y1="200" x2="595" y2="94.54545454545455" stroke="rgba(16, 185, 129, 0.35)" stroke-width="1.2" stroke-dasharray="3,3"/>
  <rect x="595" y="84.54545454545455" width="90" height="20" rx="4" fill="#0d1127" stroke="#10b981" stroke-width="1.2" opacity="0.9"/>
  <text x="640" y="98.54545454545455" fill="#34d399" font-size="8.5" font-family="Outfit, sans-serif" font-weight="600" text-anchor="middle">eyebrow_right</text>
  <circle cx="385" cy="200" r="4" fill="#10b981" stroke="#ffffff" stroke-width="1.2" style="filter: drop-shadow(0 0 3px #10b981);"/>
  <line x1="310" y1="225" x2="105" y2="190.0" stroke="rgba(16, 185, 129, 0.35)" stroke-width="1.2" stroke-dasharray="3,3"/>
  <rect x="15" y="180.0" width="90" height="20" rx="4" fill="#0d1127" stroke="#10b981" stroke-width="1.2" opacity="0.9"/>
  <text x="60" y="194.0" fill="#34d399" font-size="8.5" font-family="Outfit, sans-serif" font-weight="600" text-anchor="middle">eye_left</text>
  <circle cx="310" cy="225" r="4" fill="#10b981" stroke="#ffffff" stroke-width="1.2" style="filter: drop-shadow(0 0 3px #10b981);"/>
  <line x1="390" y1="225" x2="595" y2="149.0909090909091" stroke="rgba(16, 185, 129, 0.35)" stroke-width="1.2" stroke-dasharray="3,3"/>
  <rect x="595" y="139.0909090909091" width="90" height="20" rx="4" fill="#0d1127" stroke="#10b981" stroke-width="1.2" opacity="0.9"/>
  <text x="640" y="153.0909090909091" fill="#34d399" font-size="8.5" font-family="Outfit, sans-serif" font-weight="600" text-anchor="middle">eye_right</text>
  <circle cx="390" cy="225" r="4" fill="#10b981" stroke="#ffffff" stroke-width="1.2" style="filter: drop-shadow(0 0 3px #10b981);"/>
  <line x1="255" y1="240" x2="105" y2="240.0" stroke="rgba(139, 92, 246, 0.35)" stroke-width="1.2" stroke-dasharray="3,3"/>
  <rect x="15" y="230.0" width="90" height="20" rx="4" fill="#0d1127" stroke="#8b5cf6" stroke-width="1.2" opacity="0.9"/>
  <text x="60" y="244.0" fill="#c084fc" font-size="8.5" font-family="Outfit, sans-serif" font-weight="600" text-anchor="middle">ear_left</text>
  <circle cx="255" cy="240" r="4" fill="#8b5cf6" stroke="#ffffff" stroke-width="1.2" style="filter: drop-shadow(0 0 3px #8b5cf6);"/>
  <line x1="445" y1="240" x2="595" y2="203.63636363636363" stroke="rgba(139, 92, 246, 0.35)" stroke-width="1.2" stroke-dasharray="3,3"/>
  <rect x="595" y="193.63636363636363" width="90" height="20" rx="4" fill="#0d1127" stroke="#8b5cf6" stroke-width="1.2" opacity="0.9"/>
  <text x="640" y="207.63636363636363" fill="#c084fc" font-size="8.5" font-family="Outfit, sans-serif" font-weight="600" text-anchor="middle">ear_right</text>
  <circle cx="445" cy="240" r="4" fill="#8b5cf6" stroke="#ffffff" stroke-width="1.2" style="filter: drop-shadow(0 0 3px #8b5cf6);"/>
  <line x1="350" y1="255" x2="595" y2="258.1818181818182" stroke="rgba(16, 185, 129, 0.35)" stroke-width="1.2" stroke-dasharray="3,3"/>
  <rect x="595" y="248.1818181818182" width="90" height="20" rx="4" fill="#0d1127" stroke="#10b981" stroke-width="1.2" opacity="0.9"/>
  <text x="640" y="262.1818181818182" fill="#34d399" font-size="8.5" font-family="Outfit, sans-serif" font-weight="600" text-anchor="middle">nose_tip</text>
  <circle cx="350" cy="255" r="4" fill="#10b981" stroke="#ffffff" stroke-width="1.2" style="filter: drop-shadow(0 0 3px #10b981);"/>
  <line x1="295" y1="280" x2="105" y2="290.0" stroke="rgba(16, 185, 129, 0.35)" stroke-width="1.2" stroke-dasharray="3,3"/>
  <rect x="15" y="280.0" width="90" height="20" rx="4" fill="#0d1127" stroke="#10b981" stroke-width="1.2" opacity="0.9"/>
  <text x="60" y="294.0" fill="#34d399" font-size="8.5" font-family="Outfit, sans-serif" font-weight="600" text-anchor="middle">cheek_left</text>
  <circle cx="295" cy="280" r="4" fill="#10b981" stroke="#ffffff" stroke-width="1.2" style="filter: drop-shadow(0 0 3px #10b981);"/>
  <line x1="405" y1="280" x2="595" y2="312.72727272727275" stroke="rgba(16, 185, 129, 0.35)" stroke-width="1.2" stroke-dasharray="3,3"/>
  <rect x="595" y="302.72727272727275" width="90" height="20" rx="4" fill="#0d1127" stroke="#10b981" stroke-width="1.2" opacity="0.9"/>
  <text x="640" y="316.72727272727275" fill="#34d399" font-size="8.5" font-family="Outfit, sans-serif" font-weight="600" text-anchor="middle">cheek_right</text>
  <circle cx="405" cy="280" r="4" fill="#10b981" stroke="#ffffff" stroke-width="1.2" style="filter: drop-shadow(0 0 3px #10b981);"/>
  <line x1="290" y1="340" x2="105" y2="490.0" stroke="rgba(16, 185, 129, 0.35)" stroke-width="1.2" stroke-dasharray="3,3"/>
  <rect x="15" y="480.0" width="90" height="20" rx="4" fill="#0d1127" stroke="#10b981" stroke-width="1.2" opacity="0.9"/>
  <text x="60" y="494.0" fill="#34d399" font-size="8.5" font-family="Outfit, sans-serif" font-weight="600" text-anchor="middle">jaw_left</text>
  <circle cx="290" cy="340" r="4" fill="#10b981" stroke="#ffffff" stroke-width="1.2" style="filter: drop-shadow(0 0 3px #10b981);"/>
  <line x1="350" y1="370" x2="595" y2="585.4545454545455" stroke="rgba(16, 185, 129, 0.35)" stroke-width="1.2" stroke-dasharray="3,3"/>
  <rect x="595" y="575.4545454545455" width="90" height="20" rx="4" fill="#0d1127" stroke="#10b981" stroke-width="1.2" opacity="0.9"/>
  <text x="640" y="589.4545454545455" fill="#34d399" font-size="8.5" font-family="Outfit, sans-serif" font-weight="600" text-anchor="middle">jaw_center</text>
  <circle cx="350" cy="370" r="4" fill="#10b981" stroke="#ffffff" stroke-width="1.2" style="filter: drop-shadow(0 0 3px #10b981);"/>
  <line x1="410" y1="340" x2="595" y2="530.909090909091" stroke="rgba(16, 185, 129, 0.35)" stroke-width="1.2" stroke-dasharray="3,3"/>
  <rect x="595" y="520.909090909091" width="90" height="20" rx="4" fill="#0d1127" stroke="#10b981" stroke-width="1.2" opacity="0.9"/>
  <text x="640" y="534.909090909091" fill="#34d399" font-size="8.5" font-family="Outfit, sans-serif" font-weight="600" text-anchor="middle">jaw_right</text>
  <circle cx="410" cy="340" r="4" fill="#10b981" stroke="#ffffff" stroke-width="1.2" style="filter: drop-shadow(0 0 3px #10b981);"/>
  <line x1="350" y1="420" x2="105" y2="540.0" stroke="rgba(139, 92, 246, 0.35)" stroke-width="1.2" stroke-dasharray="3,3"/>
  <rect x="15" y="530.0" width="90" height="20" rx="4" fill="#0d1127" stroke="#8b5cf6" stroke-width="1.2" opacity="0.9"/>
  <text x="60" y="544.0" fill="#c084fc" font-size="8.5" font-family="Outfit, sans-serif" font-weight="600" text-anchor="middle">neck_base</text>
  <circle cx="350" cy="420" r="4" fill="#8b5cf6" stroke="#ffffff" stroke-width="1.2" style="filter: drop-shadow(0 0 3px #8b5cf6);"/>
  <line x1="200" y1="490" x2="105" y2="590.0" stroke="rgba(139, 92, 246, 0.35)" stroke-width="1.2" stroke-dasharray="3,3"/>
  <rect x="15" y="580.0" width="90" height="20" rx="4" fill="#0d1127" stroke="#8b5cf6" stroke-width="1.2" opacity="0.9"/>
  <text x="60" y="594.0" fill="#c084fc" font-size="8.5" font-family="Outfit, sans-serif" font-weight="600" text-anchor="middle">shoulder_left</text>
  <circle cx="200" cy="490" r="4" fill="#8b5cf6" stroke="#ffffff" stroke-width="1.2" style="filter: drop-shadow(0 0 3px #8b5cf6);"/>
  <line x1="500" y1="490" x2="595" y2="640.0" stroke="rgba(139, 92, 246, 0.35)" stroke-width="1.2" stroke-dasharray="3,3"/>
  <rect x="595" y="630.0" width="90" height="20" rx="4" fill="#0d1127" stroke="#8b5cf6" stroke-width="1.2" opacity="0.9"/>
  <text x="640" y="644.0" fill="#c084fc" font-size="8.5" font-family="Outfit, sans-serif" font-weight="600" text-anchor="middle">shoulder_right</text>
  <circle cx="500" cy="490" r="4" fill="#8b5cf6" stroke="#ffffff" stroke-width="1.2" style="filter: drop-shadow(0 0 3px #8b5cf6);"/>
  <line x1="350" y1="570" x2="105" y2="640.0" stroke="rgba(139, 92, 246, 0.35)" stroke-width="1.2" stroke-dasharray="3,3"/>
  <rect x="15" y="630.0" width="90" height="20" rx="4" fill="#0d1127" stroke="#8b5cf6" stroke-width="1.2" opacity="0.9"/>
  <text x="60" y="644.0" fill="#c084fc" font-size="8.5" font-family="Outfit, sans-serif" font-weight="600" text-anchor="middle">chest_center</text>
  <circle cx="350" cy="570" r="4" fill="#8b5cf6" stroke="#ffffff" stroke-width="1.2" style="filter: drop-shadow(0 0 3px #8b5cf6);"/>
  <line x1="380.0" y1="315.0" x2="595" y2="421.8181818181818" stroke="rgba(16, 185, 129, 0.35)" stroke-width="1.2" stroke-dasharray="3,3"/>
  <rect x="595" y="411.8181818181818" width="90" height="20" rx="4" fill="#0d1127" stroke="#10b981" stroke-width="1.2" opacity="0.9"/>
  <text x="640" y="425.8181818181818" fill="#34d399" font-size="8.5" font-family="Outfit, sans-serif" font-weight="600" text-anchor="middle">mouth_lip_0</text>
  <circle cx="380.0" cy="315.0" r="4" fill="#10b981" stroke="#ffffff" stroke-width="1.2" style="filter: drop-shadow(0 0 3px #10b981);"/>
  <line x1="365.0" y1="327.9903810567666" x2="595" y2="476.3636363636364" stroke="rgba(16, 185, 129, 0.35)" stroke-width="1.2" stroke-dasharray="3,3"/>
  <rect x="595" y="466.3636363636364" width="90" height="20" rx="4" fill="#0d1127" stroke="#10b981" stroke-width="1.2" opacity="0.9"/>
  <text x="640" y="480.3636363636364" fill="#34d399" font-size="8.5" font-family="Outfit, sans-serif" font-weight="600" text-anchor="middle">mouth_lip_2</text>
  <circle cx="365.0" cy="327.9903810567666" r="4" fill="#10b981" stroke="#ffffff" stroke-width="1.2" style="filter: drop-shadow(0 0 3px #10b981);"/>
  <line x1="335.0" y1="327.9903810567666" x2="105" y2="440.0" stroke="rgba(16, 185, 129, 0.35)" stroke-width="1.2" stroke-dasharray="3,3"/>
  <rect x="15" y="430.0" width="90" height="20" rx="4" fill="#0d1127" stroke="#10b981" stroke-width="1.2" opacity="0.9"/>
  <text x="60" y="444.0" fill="#34d399" font-size="8.5" font-family="Outfit, sans-serif" font-weight="600" text-anchor="middle">mouth_lip_4</text>
  <circle cx="335.0" cy="327.9903810567666" r="4" fill="#10b981" stroke="#ffffff" stroke-width="1.2" style="filter: drop-shadow(0 0 3px #10b981);"/>
  <line x1="320.0" y1="315.0" x2="105" y2="390.0" stroke="rgba(16, 185, 129, 0.35)" stroke-width="1.2" stroke-dasharray="3,3"/>
  <rect x="15" y="380.0" width="90" height="20" rx="4" fill="#0d1127" stroke="#10b981" stroke-width="1.2" opacity="0.9"/>
  <text x="60" y="394.0" fill="#34d399" font-size="8.5" font-family="Outfit, sans-serif" font-weight="600" text-anchor="middle">mouth_lip_6</text>
  <circle cx="320.0" cy="315.0" r="4" fill="#10b981" stroke="#ffffff" stroke-width="1.2" style="filter: drop-shadow(0 0 3px #10b981);"/>
  <line x1="335.0" y1="302.0096189432334" x2="105" y2="340.0" stroke="rgba(16, 185, 129, 0.35)" stroke-width="1.2" stroke-dasharray="3,3"/>
  <rect x="15" y="330.0" width="90" height="20" rx="4" fill="#0d1127" stroke="#10b981" stroke-width="1.2" opacity="0.9"/>
  <text x="60" y="344.0" fill="#34d399" font-size="8.5" font-family="Outfit, sans-serif" font-weight="600" text-anchor="middle">mouth_lip_8</text>
  <circle cx="335.0" cy="302.0096189432334" r="4" fill="#10b981" stroke="#ffffff" stroke-width="1.2" style="filter: drop-shadow(0 0 3px #10b981);"/>
  <line x1="365.0" y1="302.0096189432334" x2="595" y2="367.27272727272725" stroke="rgba(16, 185, 129, 0.35)" stroke-width="1.2" stroke-dasharray="3,3"/>
  <rect x="595" y="357.27272727272725" width="90" height="20" rx="4" fill="#0d1127" stroke="#10b981" stroke-width="1.2" opacity="0.9"/>
  <text x="640" y="371.27272727272725" fill="#34d399" font-size="8.5" font-family="Outfit, sans-serif" font-weight="600" text-anchor="middle">mouth_lip_10</text>
  <circle cx="365.0" cy="302.0096189432334" r="4" fill="#10b981" stroke="#ffffff" stroke-width="1.2" style="filter: drop-shadow(0 0 3px #10b981);"/>
</svg>